<?xml version="1.0" encoding="UTF-8" standalone="no"?><!DOCTYPE svg PUBLIC "-//W3C//DTD SVG 1.1//EN" "http://www.w3.org/Graphics/SVG/1.1/DTD/svg11.dtd"><svg width="100%" height="100%" viewBox="0 0 1491 317" version="1.1" xmlns="http://www.w3.org/2000/svg" xmlns:xlink="http://www.w3.org/1999/xlink" xml:space="preserve" xmlns:serif="http://www.serif.com/" style="fill-rule:evenodd;clip-rule:evenodd;stroke-linecap:square;stroke-miterlimit:1.5;"><rect id="Artboard1" x="0" y="0" width="1490.37" height="316.105" style="fill:#0f1117;"/><clipPath id="_clip1"><rect id="Artboard11" serif:id="Artboard1" x="0" y="0" width="1490.37" height="316.105"/></clipPath><g clip-path="url(#_clip1)"><g><g transform="matrix(2.08333,0,0,2.08333,-661.202,-347.781)"><g transform="matrix(144,0,0,144,477.322,278.968)"><path d="M0.352,-0.159l0.063,0.063l-0.031,0.031c-0.021,0.021 -0.046,0.038 -0.073,0.049c-0.027,0.011 -0.056,0.017 -0.086,0.017c-0.03,-0 -0.059,-0.006 -0.086,-0.017c-0.027,-0.011 -0.052,-0.028 -0.073,-0.049c-0.022,-0.022 -0.038,-0.047 -0.049,-0.075c-0.011,-0.027 -0.016,-0.055 -0.016,-0.084c0,-0.029 0.005,-0.057 0.016,-0.084c0.011,-0.027 0.027,-0.052 0.049,-0.074c0.022,-0.022 0.047,-0.038 0.075,-0.049c0.027,-0.011 0.055,-0.017 0.084,-0.017c0.029,0 0.057,0.006 0.085,0.017c0.027,0.011 0.052,0.027 0.074,0.049l0.031,0.031l-0.249,0.249c0.025,0.013 0.052,0.017 0.08,0.013c0.029,-0.005 0.054,-0.018 0.075,-0.039l0.031,-0.031Zm-0.223,-0.161c-0.027,0.027 -0.04,0.059 -0.04,0.096c-0,0.021 0.005,0.04 0.014,0.059c0.008,-0.008 0.07,-0.07 0.088,-0.088c0.019,-0.019 0.036,-0.036 0.053,-0.053c0.017,-0.017 0.031,-0.03 0.04,-0.039c-0.025,-0.013 -0.052,-0.017 -0.081,-0.013c-0.028,0.004 -0.053,0.017 -0.074,0.038Z" style="fill:#fff;fill-rule:nonzero;"/></g><g transform="matrix(144,0,0,144,541.402,278.968)"><path d="M0.066,-0.384c0.022,-0.022 0.047,-0.038 0.075,-0.049c0.027,-0.012 0.055,-0.017 0.084,-0.017c0.029,0 0.057,0.006 0.084,0.017c0.028,0.011 0.053,0.027 0.075,0.049l0.031,0.031l-0.062,0.063l-0.032,-0.031c-0.013,-0.013 -0.028,-0.023 -0.045,-0.03c-0.017,-0.007 -0.034,-0.01 -0.051,-0.01c-0.017,0 -0.034,0.003 -0.051,0.01c-0.017,0.007 -0.032,0.017 -0.045,0.03c-0.013,0.013 -0.023,0.027 -0.03,0.044c-0.007,0.017 -0.01,0.034 -0.01,0.051c-0,0.017 0.003,0.034 0.01,0.051c0.007,0.017 0.017,0.032 0.03,0.045c0.027,0.027 0.059,0.04 0.096,0.04c0.018,0 0.035,-0.003 0.052,-0.01c0.017,-0.007 0.031,-0.017 0.044,-0.03l0.032,-0.031l0.062,0.063l-0.031,0.031c-0.022,0.022 -0.047,0.039 -0.075,0.05c-0.027,0.011 -0.055,0.016 -0.084,0.016c-0.029,0 -0.057,-0.005 -0.085,-0.017c-0.027,-0.01 -0.052,-0.027 -0.074,-0.049c-0.022,-0.022 -0.038,-0.047 -0.049,-0.074c-0.011,-0.027 -0.016,-0.055 -0.016,-0.084c-0,-0.029 0.005,-0.058 0.016,-0.085c0.011,-0.027 0.027,-0.052 0.049,-0.074Z" style="fill:#fff;fill-rule:nonzero;"/></g><g transform="matrix(144,0,0,144,606.202,278.968)"><path d="M0.225,-0.45c0.031,0 0.06,0.006 0.087,0.018c0.028,0.011 0.051,0.027 0.072,0.047c0.021,0.021 0.037,0.044 0.048,0.072c0.012,0.027 0.018,0.056 0.018,0.087l0,0.225l-0.089,-0l0,-0.225c0,-0.019 -0.004,-0.036 -0.011,-0.053c-0.006,-0.016 -0.016,-0.03 -0.028,-0.043c-0.013,-0.012 -0.027,-0.022 -0.044,-0.029c-0.017,-0.007 -0.034,-0.01 -0.053,-0.01c-0.019,0 -0.036,0.004 -0.052,0.011c-0.017,0.006 -0.031,0.016 -0.043,0.028c-0.013,0.013 -0.022,0.027 -0.029,0.043c-0.007,0.017 -0.011,0.034 -0.011,0.053l0,0.225l-0.089,-0l0,-0.629l0.089,0l0,0.226c0.019,-0.015 0.04,-0.026 0.063,-0.034c0.023,-0.008 0.047,-0.012 0.072,-0.012Z" style="fill:#fff;fill-rule:nonzero;"/></g><g transform="matrix(144,0,0,144,674.746,278.968)"><path d="M0,-0.224c0,-0.031 0.006,-0.06 0.018,-0.087c0.011,-0.028 0.027,-0.051 0.048,-0.072c0.02,-0.02 0.044,-0.036 0.071,-0.047c0.027,-0.012 0.056,-0.018 0.087,-0.018c0.031,0 0.06,0.006 0.087,0.018c0.027,0.011 0.051,0.027 0.072,0.047c0.021,0.021 0.037,0.044 0.048,0.072c0.012,0.027 0.018,0.056 0.018,0.087c-0,0.031 -0.006,0.06 -0.018,0.087c-0.011,0.027 -0.027,0.051 -0.048,0.072c-0.021,0.021 -0.045,0.037 -0.072,0.048c-0.027,0.012 -0.056,0.018 -0.087,0.018c-0.031,-0 -0.06,-0.006 -0.087,-0.018c-0.027,-0.011 -0.051,-0.027 -0.072,-0.048c-0.02,-0.021 -0.036,-0.045 -0.048,-0.072c-0.011,-0.027 -0.017,-0.056 -0.017,-0.087Zm0.088,-0c0,0.019 0.004,0.036 0.011,0.053c0.007,0.017 0.016,0.031 0.029,0.043c0.012,0.013 0.026,0.022 0.043,0.029c0.017,0.007 0.034,0.011 0.053,0.011c0.019,-0 0.036,-0.004 0.053,-0.011c0.017,-0.007 0.031,-0.016 0.043,-0.029c0.013,-0.012 0.023,-0.026 0.029,-0.043c0.007,-0.017 0.011,-0.034 0.011,-0.053c-0,-0.019 -0.004,-0.036 -0.011,-0.053c-0.007,-0.016 -0.016,-0.03 -0.029,-0.043c-0.012,-0.012 -0.026,-0.022 -0.043,-0.029c-0.017,-0.007 -0.034,-0.01 -0.053,-0.01c-0.019,0 -0.036,0.004 -0.053,0.011c-0.017,0.006 -0.031,0.016 -0.044,0.028c-0.012,0.013 -0.022,0.027 -0.029,0.043c-0.007,0.017 -0.01,0.034 -0.01,0.053Z" style="fill:#fff;fill-rule:nonzero;"/></g><g transform="matrix(144,0,0,144,743.722,278.968)"><rect x="0.001" y="-0.63" width="0.089" height="0.629" style="fill:#46a0f7;fill-rule:nonzero;"/></g><g transform="matrix(144,0,0,144,761.434,278.968)"><path d="M0.352,-0.159l0.063,0.063l-0.031,0.031c-0.021,0.021 -0.046,0.038 -0.073,0.049c-0.027,0.011 -0.056,0.017 -0.086,0.017c-0.03,-0 -0.059,-0.006 -0.086,-0.017c-0.027,-0.011 -0.052,-0.028 -0.073,-0.049c-0.022,-0.022 -0.038,-0.047 -0.049,-0.075c-0.011,-0.027 -0.016,-0.055 -0.016,-0.084c0,-0.029 0.005,-0.057 0.016,-0.084c0.011,-0.027 0.027,-0.052 0.049,-0.074c0.022,-0.022 0.047,-0.038 0.075,-0.049c0.027,-0.011 0.055,-0.017 0.084,-0.017c0.029,0 0.057,0.006 0.085,0.017c0.027,0.011 0.052,0.027 0.074,0.049l0.031,0.031l-0.249,0.249c0.025,0.013 0.052,0.017 0.08,0.013c0.029,-0.005 0.054,-0.018 0.075,-0.039l0.031,-0.031Zm-0.223,-0.161c-0.027,0.027 -0.04,0.059 -0.04,0.096c-0,0.021 0.005,0.04 0.014,0.059c0.008,-0.008 0.07,-0.07 0.088,-0.088c0.019,-0.019 0.036,-0.036 0.053,-0.053c0.017,-0.017 0.031,-0.03 0.04,-0.039c-0.025,-0.013 -0.052,-0.017 -0.081,-0.013c-0.028,0.004 -0.053,0.017 -0.074,0.038Z" style="fill:#46a0f7;fill-rule:nonzero;"/></g><g transform="matrix(144,0,0,144,825.514,278.968)"><path d="M0,-0.225c0,-0.031 0.006,-0.06 0.018,-0.087c0.011,-0.028 0.027,-0.051 0.048,-0.072c0.02,-0.02 0.044,-0.036 0.071,-0.047c0.027,-0.012 0.056,-0.018 0.087,-0.018c0.031,0 0.06,0.006 0.087,0.018c0.027,0.011 0.051,0.027 0.072,0.047c0.021,0.021 0.037,0.044 0.048,0.072c0.012,0.027 0.018,0.056 0.018,0.087l-0,0.225l-0.089,-0l-0,-0.225c-0,-0.019 -0.004,-0.036 -0.011,-0.053c-0.007,-0.016 -0.016,-0.03 -0.029,-0.043c-0.012,-0.012 -0.026,-0.022 -0.043,-0.029c-0.017,-0.007 -0.034,-0.01 -0.053,-0.01c-0.019,0 -0.036,0.004 -0.053,0.011c-0.016,0.006 -0.03,0.016 -0.043,0.028c-0.012,0.013 -0.022,0.027 -0.029,0.043c-0.007,0.017 -0.01,0.034 -0.01,0.053l-0,0.225l-0.089,-0l-0,-0.225Z" style="fill:#46a0f7;fill-rule:nonzero;"/></g><g transform="matrix(144,0,0,144,894.49,278.968)"><path d="M0.404,-0.45l0,0.089l-0.271,0c-0.013,0 -0.023,0.004 -0.032,0.013c-0.009,0.009 -0.013,0.019 -0.013,0.032c-0,0.013 0.004,0.023 0.013,0.032c0.009,0.009 0.019,0.014 0.032,0.014l0.18,-0c0.019,-0 0.036,0.003 0.052,0.01c0.017,0.007 0.031,0.017 0.043,0.029c0.013,0.012 0.023,0.026 0.03,0.042c0.007,0.017 0.01,0.034 0.01,0.053c0,0.019 -0.003,0.036 -0.01,0.052c-0.007,0.017 -0.017,0.031 -0.029,0.043c-0.013,0.013 -0.027,0.022 -0.043,0.029c-0.017,0.007 -0.034,0.011 -0.053,0.011l-0.27,-0l0,-0.089l0.27,-0c0.013,-0 0.024,-0.004 0.033,-0.013c0.009,-0.009 0.013,-0.02 0.013,-0.033c0,-0.013 -0.004,-0.023 -0.013,-0.032c-0.009,-0.009 -0.02,-0.013 -0.033,-0.013l-0.18,-0c-0.019,-0 -0.036,-0.004 -0.052,-0.011c-0.017,-0.007 -0.031,-0.016 -0.043,-0.029c-0.012,-0.012 -0.021,-0.026 -0.028,-0.043c-0.007,-0.016 -0.011,-0.033 -0.011,-0.052c0,-0.019 0.004,-0.036 0.011,-0.053c0.007,-0.016 0.016,-0.03 0.028,-0.042c0.012,-0.012 0.026,-0.022 0.043,-0.029c0.016,-0.007 0.033,-0.01 0.052,-0.01l0.271,-0Z" style="fill:#46a0f7;fill-rule:nonzero;"/></g><g transform="matrix(144,0,0,144,963.034,278.968)"><path d="M0.352,-0.159l0.063,0.063l-0.031,0.031c-0.021,0.021 -0.046,0.038 -0.073,0.049c-0.027,0.011 -0.056,0.017 -0.086,0.017c-0.03,-0 -0.059,-0.006 -0.086,-0.017c-0.027,-0.011 -0.052,-0.028 -0.073,-0.049c-0.022,-0.022 -0.038,-0.047 -0.049,-0.075c-0.011,-0.027 -0.016,-0.055 -0.016,-0.084c0,-0.029 0.005,-0.057 0.016,-0.084c0.011,-0.027 0.027,-0.052 0.049,-0.074c0.022,-0.022 0.047,-0.038 0.075,-0.049c0.027,-0.011 0.055,-0.017 0.084,-0.017c0.029,0 0.057,0.006 0.085,0.017c0.027,0.011 0.052,0.027 0.074,0.049l0.031,0.031l-0.249,0.249c0.025,0.013 0.052,0.017 0.08,0.013c0.029,-0.005 0.054,-0.018 0.075,-0.039l0.031,-0.031Zm-0.223,-0.161c-0.027,0.027 -0.04,0.059 -0.04,0.096c-0,0.021 0.005,0.04 0.014,0.059c0.008,-0.008 0.07,-0.07 0.088,-0.088c0.019,-0.019 0.036,-0.036 0.053,-0.053c0.017,-0.017 0.031,-0.03 0.04,-0.039c-0.025,-0.013 -0.052,-0.017 -0.081,-0.013c-0.028,0.004 -0.053,0.017 -0.074,0.038Z" style="fill:#46a0f7;fill-rule:nonzero;"/></g></g><g><path d="M139.04,38.831l104.282,60.207l-0,120.413l-104.282,60.207l-104.281,-60.207l0,-120.413l104.281,-60.207Z" style="fill:#fff;stroke:#fff;stroke-width:16.06px;"/><path d="M139.04,94.797l120.325,69.47l0,138.939l-120.325,69.469l-120.324,-69.469l-0,-138.939l120.324,-69.47Z" style="fill:none;stroke:#0f1117;stroke-width:20.83px;"/><path d="M139.04,171.141l120.325,69.47l0,138.939l-120.325,69.469l-120.324,-69.469l-0,-138.939l120.324,-69.47Z" style="fill:none;stroke:#0f1117;stroke-width:20.83px;"/></g></g></g></svg>