<svg xmlns="http://www.w3.org/2000/svg" width="140.45999999999998" height="35" viewBox="0 0 140.45999999999998 35"><rect class="svg__rect" x="0" y="0" width="94.28" height="35" fill="#8FC965"/><rect class="svg__rect" x="92.28" y="0" width="48.17999999999999" height="35" fill="#419B5A"/><path class="svg__text" d="M15.70 22L14.22 22L14.22 13.47L17.22 13.47Q18.69 13.47 19.50 14.13Q20.30 14.79 20.30 16.05L20.30 16.05Q20.30 16.90 19.89 17.48Q19.47 18.06 18.73 18.37L18.73 18.37L20.65 21.92L20.65 22L19.06 22L17.35 18.71L15.70 18.71L15.70 22ZM15.70 14.66L15.70 17.52L17.22 17.52Q17.97 17.52 18.39 17.15Q18.82 16.77 18.82 16.11L18.82 16.11Q18.82 15.43 18.43 15.05Q18.04 14.68 17.26 14.66L17.26 14.66L15.70 14.66ZM30.27 22L24.69 22L24.69 13.47L30.23 13.47L30.23 14.66L26.18 14.66L26.18 17.02L29.68 17.02L29.68 18.19L26.18 18.19L26.18 20.82L30.27 20.82L30.27 22ZM39.82 22L34.47 22L34.47 13.47L35.95 13.47L35.95 20.82L39.82 20.82L39.82 22ZM49.53 22L43.95 22L43.95 13.47L49.48 13.47L49.48 14.66L45.43 14.66L45.43 17.02L48.93 17.02L48.93 18.19L45.43 18.19L45.43 20.82L49.53 20.82L49.53 22ZM54.50 22L52.96 22L56.18 13.47L57.51 13.47L60.74 22L59.19 22L58.50 20.01L55.19 20.01L54.50 22ZM56.84 15.28L55.61 18.82L58.08 18.82L56.84 15.28ZM64.26 19.42L64.26 19.42L65.74 19.42Q65.74 20.15 66.22 20.55Q66.71 20.95 67.60 20.95L67.60 20.95Q68.38 20.95 68.77 20.63Q69.15 20.32 69.15 19.80L69.15 19.80Q69.15 19.24 68.76 18.94Q68.36 18.63 67.33 18.32Q66.30 18.01 65.69 17.63L65.69 17.63Q64.53 16.90 64.53 15.72L64.53 15.72Q64.53 14.69 65.37 14.02Q66.21 13.35 67.55 13.35L67.55 13.35Q68.44 13.35 69.14 13.68Q69.83 14.01 70.23 14.61Q70.63 15.22 70.63 15.96L70.63 15.96L69.15 15.96Q69.15 15.29 68.74 14.91Q68.32 14.54 67.54 14.54L67.54 14.54Q66.81 14.54 66.41 14.85Q66.01 15.16 66.01 15.71L66.01 15.71Q66.01 16.18 66.44 16.50Q66.88 16.81 67.87 17.10Q68.87 17.40 69.47 17.78Q70.07 18.16 70.36 18.65Q70.64 19.13 70.64 19.79L70.64 19.79Q70.64 20.86 69.82 21.49Q69.00 22.12 67.60 22.12L67.60 22.12Q66.68 22.12 65.90 21.77Q65.12 21.43 64.69 20.83Q64.26 20.22 64.26 19.42ZM80.50 22L74.93 22L74.93 13.47L80.46 13.47L80.46 14.66L76.41 14.66L76.41 17.02L79.91 17.02L79.91 18.19L76.41 18.19L76.41 20.82L80.50 20.82L80.50 22Z" fill="#FFFFFF"/><path class="svg__text" d="M106.04 17.80L106.04 17.80Q106.04 16.45 106.51 15.46Q106.98 14.46 107.82 13.95Q108.67 13.43 109.74 13.43L109.74 13.43Q110.81 13.43 111.65 13.95Q112.49 14.46 112.97 15.46Q113.44 16.45 113.44 17.80L113.44 17.80Q113.44 19.15 112.97 20.15Q112.49 21.14 111.65 21.65Q110.82 22.17 109.74 22.17L109.74 22.17Q108.67 22.17 107.82 21.65Q106.98 21.14 106.51 20.15Q106.04 19.16 106.04 17.80ZM108.42 17.80L108.42 17.80Q108.42 19.06 108.78 19.64Q109.13 20.22 109.74 20.22L109.74 20.22Q110.35 20.22 110.70 19.64Q111.06 19.06 111.06 17.80L111.06 17.80Q111.06 16.54 110.70 15.96Q110.35 15.38 109.74 15.38L109.74 15.38Q109.13 15.38 108.78 15.96Q108.42 16.54 108.42 17.80ZM117.65 20.75L117.65 20.75Q117.65 20.15 118.04 19.78Q118.43 19.41 119.02 19.41L119.02 19.41Q119.62 19.41 120.01 19.78Q120.39 20.15 120.39 20.75L120.39 20.75Q120.39 21.34 120.00 21.72Q119.61 22.11 119.02 22.11L119.02 22.11Q118.44 22.11 118.05 21.72Q117.65 21.34 117.65 20.75ZM125.84 15.44L124.28 15.44L124.28 13.60L128.22 13.60L128.22 22L125.84 22L125.84 15.44Z" fill="#FFFFFF" x="105.28"/></svg>